<svg xmlns="http://www.w3.org/2000/svg" style="display: none;">
  
    <symbol id="icon-question" viewBox="0 0 512 512">
      <path d="m311 359l0 68c0 3-1 6-4 8c-2 3-5 4-8 4l-68 0c-3 0-6-1-8-4c-2-2-4-5-4-8l0-68c0-3 2-6 4-8c2-2 5-4 8-4l68 0c3 0 6 2 8 4c3 2 4 5 4 8z m90-172c0 11-1 20-4 29c-3 9-7 17-10 22c-4 6-9 11-16 17c-7 6-12 10-16 13c-5 2-10 6-18 10c-8 4-14 10-19 18c-6 8-8 15-8 19c0 4-1 7-4 10c-2 3-5 4-8 4l-68 0c-3 0-6-2-8-5c-2-4-3-7-3-11l0-13c0-16 7-30 19-44c12-14 26-25 41-31c11-6 19-11 24-16c5-6 7-13 7-22c0-8-4-15-13-21c-9-6-19-9-31-9c-12 0-23 2-31 8c-7 5-17 16-30 33c-3 3-6 4-9 4c-3 0-5 0-7-2l-47-36c-3-2-4-4-5-7c0-3 0-5 2-8c30-51 75-76 132-76c16 0 31 3 46 9c16 6 30 14 42 24c13 10 23 22 30 36c8 15 12 30 12 45z"/>
    </symbol>
  
    <symbol id="icon-calendar" viewBox="0 0 512 512">
      <path d="m55 475l82 0l0-82l-82 0z m100 0l92 0l0-82l-92 0z m-100-100l82 0l0-92l-82 0z m100 0l92 0l0-92l-92 0z m-100-110l82 0l0-82l-82 0z m210 210l92 0l0-82l-92 0z m-110-210l92 0l0-82l-92 0z m220 210l82 0l0-82l-82 0z m-110-100l92 0l0-92l-92 0z m-100-247l0-82c0-3-1-5-3-7c-2-2-4-2-7-2l-18 0c-2 0-4 0-6 2c-2 2-3 4-3 7l0 82c0 2 1 5 3 6c2 2 4 3 6 3l18 0c3 0 5-1 7-3c2-1 3-4 3-6z m210 247l82 0l0-92l-82 0z m-110-110l92 0l0-82l-92 0z m110 0l82 0l0-82l-82 0z m9-137l0-82c0-3-1-5-3-7c-2-2-4-2-6-2l-18 0c-3 0-5 0-7 2c-2 2-3 4-3 7l0 82c0 2 1 5 3 6c2 2 4 3 7 3l18 0c2 0 4-1 6-3c2-1 3-4 3-6z m110-18l0 365c0 10-4 19-11 26c-7 7-16 11-26 11l-402 0c-10 0-19-4-26-11c-7-7-11-16-11-26l0-365c0-10 4-19 11-26c7-7 16-11 26-11l36 0l0-27c0-13 5-24 14-33c9-9 20-13 32-13l18 0c13 0 24 4 33 13c9 9 13 20 13 33l0 27l110 0l0-27c0-13 4-24 13-33c9-9 20-13 33-13l18 0c12 0 23 4 32 13c9 9 14 20 14 33l0 27l36 0c10 0 19 4 26 11c7 7 11 16 11 26z"/>
    </symbol>
  
    <symbol id="icon-group" viewBox="0 0 512 512">
      <path d="m158 256c-29 1-52 12-71 34l-35 0c-15 0-27-3-37-11c-10-7-15-17-15-31c0-63 11-94 33-94c1 0 5 1 12 5c6 4 15 8 26 12c10 3 21 5 31 5c12 0 24-2 36-6c-1 7-1 13-1 18c0 24 7 47 21 68z m286 170c0 21-7 38-20 50c-13 13-30 19-51 19l-234 0c-21 0-38-6-51-19c-13-12-20-29-20-50c0-10 1-19 1-28c1-9 2-18 4-29c2-10 4-20 7-29c3-9 7-17 11-26c5-8 11-15 17-21c6-6 14-11 23-15c9-3 19-5 30-5c1 0 5 2 11 6c6 4 12 8 19 13c8 4 17 9 29 12c12 4 24 6 36 6c12 0 24-2 36-6c12-3 21-8 29-12c7-5 13-9 19-13c6-4 10-6 11-6c11 0 21 2 30 5c9 4 17 9 23 15c6 6 12 13 17 21c4 9 8 17 11 26c3 9 5 19 7 29c2 11 3 20 4 29c0 9 1 18 1 28z m-273-341c0 19-7 35-20 49c-14 13-30 20-49 20c-18 0-35-7-48-20c-13-14-20-30-20-49c0-19 7-35 20-48c13-13 30-20 48-20c19 0 35 7 49 20c13 13 20 29 20 48z m187 103c0 28-10 52-30 72c-20 20-44 30-72 30c-28 0-52-10-72-30c-20-20-30-44-30-72c0-29 10-53 30-73c20-20 44-30 72-30c28 0 52 10 72 30c20 20 30 44 30 73z m154 60c0 14-5 24-15 31c-10 8-22 11-37 11l-35 0c-19-22-42-33-71-34c14-21 21-44 21-68c0-5 0-11-1-18c12 4 24 6 36 6c10 0 21-2 31-5c11-4 20-8 26-12c7-4 11-5 12-5c22 0 33 31 33 94z m-34-163c0 19-7 35-20 49c-13 13-30 20-48 20c-19 0-35-7-49-20c-13-14-20-30-20-49c0-19 7-35 20-48c14-13 30-20 49-20c18 0 35 7 48 20c13 13 20 29 20 48z"/>
    </symbol>
  
    <symbol id="icon-bubble" viewBox="0 0 512 512">
      <path d="m139 192c17 0 32 14 32 32c0 18-15 32-32 32c-18 0-32-14-32-32c0-18 14-32 32-32z m106 0c18 0 32 14 32 32c0 18-14 32-32 32c-17 0-32-14-32-32c0-18 15-32 32-32z m107 0c18 0 32 14 32 32c0 18-14 32-32 32c-18 0-32-14-32-32c0-18 14-32 32-32z m75-171l-363 0c-35 0-64 29-64 64l0 256c0 36 43 43 64 43l0 128l192-128l171 0c35 0 64-29 64-64l0-235c0-35-29-64-64-64z m21 299c0 12-10 21-21 21l-192 0l-128 107l0-107l-43 0c-12 0-21-9-21-21l0-235c0-11 9-21 21-21l363 0c11 0 21 10 21 21z"/>
    </symbol>
  
    <symbol id="icon-heart" viewBox="0 0 512 512">
      <path d="m440 105c24 22 36 49 36 80c0 32-12 59-36 81c0 0-184 169-184 169c0 0-184-169-184-169c-24-22-36-49-36-81c0-31 12-58 36-80c21-19 47-29 77-29c30 0 56 10 78 29c0 0 29 27 29 27c0 0 30-27 30-27c21-19 46-29 76-29c31 0 56 10 78 29"/>
    </symbol>
  
    <symbol id="icon-list-number" viewBox="0 0 512 512">
      <path d="m109 463c0 15-5 27-16 36c-10 9-23 13-38 13c-21 0-37-6-50-19l17-25c9 9 19 13 30 13c6 0 10-2 14-4c5-3 7-7 7-12c0-13-10-18-30-16l-8-16c2-2 5-6 9-13c5-6 9-11 13-15c3-4 7-8 10-11l0-1c-3 0-8 1-14 1c-6 0-11 0-14 0l0 15l-30 0l0-43l95 0l0 25l-27 33c10 2 18 7 23 14c6 7 9 15 9 25z m0-179l0 45l-103 0c-1-7-2-12-2-15c0-10 3-19 7-27c4-8 10-14 16-19c6-5 13-10 19-14c6-4 12-8 16-12c5-4 7-9 7-13c0-5-2-9-4-11c-3-3-7-4-12-4c-8 0-16 6-23 17l-24-17c5-10 11-18 20-23c9-5 20-8 31-8c13 0 25 4 35 12c9 8 14 18 14 32c0 9-3 18-10 26c-6 8-13 14-21 18c-8 5-15 10-22 15c-6 5-10 10-10 15l36 0l0-17z m403 91l0 55c0 2-1 4-3 6c-2 2-4 3-6 3l-348 0c-2 0-4-1-6-3c-2-2-3-4-3-6l0-55c0-3 1-5 3-7c2-1 4-2 6-2l348 0c2 0 4 1 6 2c2 2 3 4 3 7z m-402-257l0 28l-96 0l0-28l31 0c0-8 0-19 0-35c0-15 0-27 0-34l0-4l-1 0c-1 3-6 9-14 16l-20-22l39-36l30 0l0 115z m402 111l0 54c0 3-1 5-3 7c-2 2-4 3-6 3l-348 0c-2 0-4-1-6-3c-2-2-3-4-3-7l0-54c0-3 1-5 3-7c2-2 4-3 6-3l348 0c2 0 4 1 6 3c2 2 3 4 3 7z m0-147l0 55c0 3-1 5-3 7c-2 1-4 2-6 2l-348 0c-2 0-4-1-6-2c-2-2-3-4-3-7l0-55c0-2 1-4 3-6c2-2 4-3 6-3l348 0c2 0 4 1 6 3c2 2 3 4 3 6z"/>
    </symbol>
  
    <symbol id="icon-list-bullet" viewBox="0 0 512 512">
      <path d="m110 402c0 16-6 28-16 39c-11 11-24 16-39 16c-15 0-28-5-39-16c-11-11-16-23-16-39c0-15 5-28 16-39c11-10 24-16 39-16c15 0 28 6 39 16c10 11 16 24 16 39z m0-146c0 15-6 28-16 39c-11 11-24 16-39 16c-15 0-28-5-39-16c-11-11-16-24-16-39c0-15 5-28 16-39c11-11 24-16 39-16c15 0 28 5 39 16c10 11 16 24 16 39z m402 119l0 55c0 2-1 4-3 6c-2 2-4 3-6 3l-348 0c-2 0-4-1-6-3c-2-2-3-4-3-6l0-55c0-3 1-5 3-7c2-1 4-2 6-2l348 0c2 0 4 1 6 2c2 2 3 4 3 7z m-402-265c0 15-6 28-16 39c-11 10-24 16-39 16c-15 0-28-6-39-16c-11-11-16-24-16-39c0-16 5-28 16-39c11-11 24-16 39-16c15 0 28 5 39 16c10 11 16 23 16 39z m402 119l0 54c0 3-1 5-3 7c-2 2-4 3-6 3l-348 0c-2 0-4-1-6-3c-2-2-3-4-3-7l0-54c0-3 1-5 3-7c2-2 4-3 6-3l348 0c2 0 4 1 6 3c2 2 3 4 3 7z m0-147l0 55c0 3-1 5-3 7c-2 1-4 2-6 2l-348 0c-2 0-4-1-6-2c-2-2-3-4-3-7l0-55c0-2 1-4 3-6c2-2 4-3 6-3l348 0c2 0 4 1 6 3c2 2 3 4 3 6z"/>
    </symbol>
  
    <symbol id="icon-bold" viewBox="0 0 512 512">
      <path d="m213 435c15 6 28 9 40 9c25 0 46-4 62-12c16-8 28-19 35-32c7-14 11-31 11-52c0-22-4-39-12-51c-11-18-24-30-40-36c-15-7-39-10-71-10c-14 0-23 1-29 3l0 41l0 50l1 77c0 3 1 7 3 13z m-4-214c9 2 19 2 32 2c33 0 58-6 75-18c17-13 25-34 25-64c0-21-8-39-24-54c-16-14-40-21-73-21c-10 0-22 1-37 4c0 8 0 15 1 22c1 23 2 50 1 79l0 28c0 9 0 16 0 22z m-154 254l0-26c9-2 15-3 20-4c15-2 26-5 35-9c3-5 5-10 6-14c2-13 3-31 3-56l-1-142c-1-48-2-87-3-115c0-17-1-27-3-31c0-1-1-2-3-4c-4-2-10-3-20-4c-6 0-16-2-32-4l-2-23l75-2l108-4l13 0c1 0 2 0 4 0c2 0 3 0 4 0c0 0 2 0 6 0c4 0 8 0 12 0l21 0c17 0 35 2 55 8c8 2 17 6 27 11c11 5 21 12 29 21c9 9 15 19 19 30c4 11 6 23 6 35c0 13-3 26-9 37c-7 11-16 21-28 30c-5 3-19 11-42 22c33 7 59 21 76 41c17 20 26 43 26 68c0 14-3 30-8 46c-4 12-11 23-20 33c-13 14-26 24-40 31c-14 7-34 13-58 17c-16 3-35 4-57 3l-56-1c-16 0-45 1-85 3c-7 1-33 2-78 3z"/>
    </symbol>
  
    <symbol id="icon-italic" viewBox="0 0 512 512">
      <path d="m110 475l5-24c0-1 8-3 22-6c14-4 25-7 33-11c5-7 9-17 11-29l8-40l16-76l4-19c1-8 3-16 4-24c2-8 4-14 5-19c1-5 3-9 4-13c1-4 1-7 2-9c1-2 1-3 1-3l8-45l5-18l6-39l3-14l0-11c-8-4-22-7-42-8c-5 0-9-1-10-1l5-29l91 4c7 0 14 0 20 0c13 0 33-1 62-2c6-1 12-1 19-2c7 0 10 0 10 0c0 3-1 7-1 10c-2 6-3 11-4 15c-11 4-21 7-31 9c-12 3-22 6-29 9c-2 6-5 14-7 25c-2 8-3 16-4 23c-8 38-14 67-19 88l-17 89l-11 45l-12 67l-4 13c0 1 0 4 1 7c12 3 23 5 34 6c7 1 13 2 19 3c-1 6-1 11-2 17c-2 6-3 10-3 12c-3 0-6 0-7 0c-4 0-8 0-12 0c-1 0-4 0-8 0c-3-1-17-3-41-5l-57-1c-7 0-24 1-49 3c-14 2-24 2-28 3z"/>
    </symbol>
  
    <symbol id="icon-link" viewBox="0 0 512 512">
      <path d="m434 347c0-7-2-14-8-19l-59-59c-5-6-12-8-20-8c-8 0-14 3-20 9c0 0 2 2 5 5c3 3 5 5 6 6c1 1 3 3 5 6c2 2 3 4 3 7c1 2 1 5 1 8c0 7-2 14-8 19c-5 5-11 8-19 8c-3 0-5 0-8-1c-2-1-5-2-7-4c-3-1-4-3-6-4c-1-1-3-3-6-6c-3-3-4-5-5-5c-6 5-9 12-9 20c0 8 2 15 8 20l58 59c6 5 12 8 20 8c7 0 14-3 19-8l42-41c6-6 8-12 8-20z m-201-201c0-8-2-14-8-19l-58-60c-6-5-12-8-20-8c-7 0-14 3-19 8l-42 42c-6 5-8 12-8 19c0 8 2 14 8 19l59 60c5 5 12 8 20 8c8 0 14-3 20-9c0-1-2-3-5-6c-3-3-5-5-6-6c-1-1-3-3-5-5c-2-3-3-5-3-7c-1-3-1-5-1-8c0-8 2-14 8-20c5-5 11-8 19-8c3 0 5 1 8 1c2 1 5 2 7 4c3 2 4 3 6 4c1 1 3 3 6 6c3 3 4 5 5 6c6-6 9-13 9-21z m256 201c0 23-8 43-24 58l-42 42c-16 16-35 24-58 24c-23 0-43-8-58-24l-59-60c-16-15-24-35-24-58c0-23 8-43 25-59l-25-25c-16 16-36 25-59 25c-23 0-43-8-59-24l-59-60c-16-16-24-35-24-58c0-23 8-42 24-58l42-42c16-16 35-23 58-23c23 0 43 8 58 24l59 59c16 16 24 35 24 58c0 23-8 43-25 60l25 25c16-17 36-25 59-25c23 0 43 8 59 24l59 59c16 16 24 36 24 58z"/>
    </symbol>
  
    <symbol id="icon-photo" viewBox="0 0 512 512">
      <path d="m171 171c0 14-5 26-15 36c-10 10-22 15-37 15c-14 0-26-5-36-15c-10-10-15-22-15-36c0-15 5-27 15-37c10-10 22-15 36-15c15 0 27 5 37 15c10 10 15 22 15 37z m273 102l0 120l-376 0l0-52l86-85l42 43l137-137z m25-188l-426 0c-3 0-5 1-6 3c-2 2-3 4-3 6l0 324c0 2 1 4 3 6c1 2 3 3 6 3l426 0c3 0 5-1 6-3c2-2 3-4 3-6l0-324c0-2-1-4-3-6c-1-2-3-3-6-3z m43 9l0 324c0 12-4 22-13 30c-8 9-18 13-30 13l-426 0c-12 0-22-4-30-13c-9-8-13-18-13-30l0-324c0-12 4-22 13-30c8-9 18-13 30-13l426 0c12 0 22 4 30 13c9 8 13 18 13 30z"/>
    </symbol>
  
    <symbol id="icon-light-bulb" viewBox="0 0 512 512">
      <path d="m256 0c-97 0-176 79-176 176c0 64 59 133 80 193c33 89 29 143 96 143c68 0 63-53 96-143c21-60 80-129 80-193c0-97-79-176-176-176z m41 435l-79 10c-3-8-6-18-9-31c0 0-1 0-1 0l99-12c-1 4-2 9-4 14c-2 7-4 13-6 19z m-93-36c-3-10-6-20-10-31l124 0c-2 6-4 12-5 17z m52 81c-16 0-24-2-32-20l68-8c-10 26-17 28-36 28z m75-144l-150 0c-8-17-17-35-27-51c-20-38-42-76-42-109c0-79 65-144 144-144c79 0 144 65 144 144c0 32-22 71-42 109c-10 17-19 34-27 51z m-75-256c-53 0-96 43-96 96c0 4 4 8 8 8c4 0 8-4 8-8c0-44 36-80 80-80c4 0 8-4 8-8c0-4-4-8-8-8z"/>
    </symbol>
  
</svg>
